<?xml version="1.0" standalone="no"?>
<!DOCTYPE svg PUBLIC "-//W3C//DTD SVG 20010904//EN"
 "http://www.w3.org/TR/2001/REC-SVG-20010904/DTD/svg10.dtd">
<svg version="1.0" xmlns="http://www.w3.org/2000/svg"
 width="200.000000pt" height="200.000000pt" viewBox="0 0 200.000000 200.000000"
 preserveAspectRatio="xMidYMid meet">
<metadata>
Created by potrace 1.14, written by Peter Selinger 2001-2017
</metadata>
<g transform="translate(0.000000,200.000000) scale(0.100000,-0.100000)"
fill="#000000" stroke="none">
<path d="M997 1786 c-247 -155 -497 -388 -684 -639 -65 -88 -153 -226 -153
-241 0 -14 23 -2 136 72 279 183 578 484 740 746 87 139 86 141 -39 62z"/>
<path d="M1659 1747 c-247 -179 -455 -361 -755 -661 -236 -237 -395 -414 -548
-610 -88 -112 -160 -216 -154 -221 2 -2 56 35 120 83 402 301 858 739 1188
1143 100 122 244 318 239 324 -2 2 -43 -24 -90 -58z"/>
<path d="M1737 1046 c-247 -155 -497 -388 -684 -639 -65 -88 -153 -226 -153
-241 0 -14 23 -2 136 72 279 183 578 484 740 746 87 139 86 141 -39 62z"/>
</g>
</svg>
